<svg width="297" height="543" viewBox="0 0 297 543" fill="none" xmlns="http://www.w3.org/2000/svg">
<g clip-path="url(#clip0_13_102)">
<path d="M136.963 115.839H63.6963C63.3366 115.838 62.9918 115.492 62.7374 114.876C62.483 114.26 62.34 113.425 62.3395 112.554V68.5448C62.34 67.6738 62.483 66.8387 62.7374 66.2228C62.9918 65.6068 63.3366 65.2604 63.6963 65.2593H136.963C137.322 65.2604 137.667 65.6068 137.921 66.2228C138.176 66.8387 138.319 67.6738 138.319 68.5448V112.554C138.319 113.425 138.176 114.26 137.921 114.876C137.667 115.492 137.322 115.838 136.963 115.839ZM63.6963 66.5735C63.4805 66.5741 63.2736 66.7819 63.121 67.1515C62.9683 67.5211 62.8825 68.0221 62.8822 68.5448V112.554C62.8825 113.077 62.9683 113.578 63.121 113.947C63.2736 114.317 63.4805 114.525 63.6963 114.525H136.963C137.178 114.525 137.385 114.317 137.538 113.947C137.691 113.578 137.776 113.077 137.777 112.554V68.5448C137.776 68.0222 137.691 67.5211 137.538 67.1515C137.385 66.782 137.178 66.5741 136.963 66.5735L63.6963 66.5735Z" fill="#3F3D56"/>
<path d="M75.0804 102.244C78.1328 102.244 80.6072 96.2521 80.6072 88.8607C80.6072 81.4694 78.1328 75.4775 75.0804 75.4775C72.028 75.4775 69.5536 81.4694 69.5536 88.8607C69.5536 96.2521 72.028 102.244 75.0804 102.244Z" fill="#3C4E71"/>
<path d="M87.8447 79.9385C87.6004 79.9385 87.3661 80.1735 87.1933 80.5918C87.0206 81.0102 86.9236 81.5775 86.9236 82.1691C86.9236 82.7607 87.0206 83.328 87.1933 83.7463C87.3661 84.1646 87.6004 84.3996 87.8447 84.3996H131.27C131.514 84.3996 131.748 84.1646 131.921 83.7463C132.094 83.328 132.191 82.7607 132.191 82.1691C132.191 81.5775 132.094 81.0102 131.921 80.5918C131.748 80.1735 131.514 79.9385 131.27 79.9385H87.8447Z" fill="#E6E6E6"/>
<path d="M87.8447 93.3218C87.6004 93.3218 87.3661 93.5568 87.1933 93.9751C87.0206 94.3934 86.9236 94.9607 86.9236 95.5523C86.9236 96.1439 87.0206 96.7112 87.1933 97.1295C87.3661 97.5478 87.6004 97.7829 87.8447 97.7829H106.531C106.652 97.7834 106.772 97.7261 106.884 97.6142C106.996 97.5024 107.097 97.3382 107.183 97.131C107.269 96.9238 107.337 96.6777 107.383 96.4069C107.429 96.136 107.453 95.8456 107.453 95.5523C107.453 95.2591 107.429 94.9687 107.383 94.6978C107.337 94.4269 107.269 94.1808 107.183 93.9736C107.097 93.7665 106.996 93.6023 106.884 93.4904C106.772 93.3785 106.652 93.3212 106.531 93.3218H87.8447Z" fill="#E6E6E6"/>
<path d="M105.155 272.712H72.5919C72.2322 272.711 71.8874 272.364 71.633 271.748C71.3787 271.132 71.2356 270.297 71.2352 269.426V187.306C71.2356 186.435 71.3787 185.6 71.633 184.984C71.8874 184.368 72.2322 184.021 72.5919 184.02H105.155C105.514 184.021 105.859 184.368 106.114 184.984C106.368 185.6 106.511 186.435 106.512 187.306V269.426C106.511 270.297 106.368 271.132 106.114 271.748C105.859 272.364 105.514 272.711 105.155 272.712ZM72.5919 185.335C72.3761 185.335 72.1692 185.543 72.0166 185.913C71.864 186.282 71.7781 186.783 71.7779 187.306V269.426C71.7781 269.949 71.864 270.45 72.0166 270.82C72.1692 271.189 72.3761 271.397 72.5919 271.398H105.155C105.371 271.397 105.578 271.189 105.73 270.82C105.883 270.45 105.969 269.949 105.969 269.426V187.306C105.969 186.783 105.883 186.282 105.73 185.913C105.578 185.543 105.371 185.335 105.155 185.335H72.5919Z" fill="#3F3D56"/>
<path d="M79.5304 200.955C79.2861 200.955 79.0518 201.19 78.8791 201.608C78.7063 202.027 78.6093 202.594 78.6093 203.186C78.6093 203.777 78.7063 204.345 78.8791 204.763C79.0518 205.181 79.2861 205.416 79.5304 205.416H98.2163C98.4606 205.416 98.6949 205.181 98.8676 204.763C99.0404 204.345 99.1374 203.777 99.1374 203.186C99.1374 202.594 99.0404 202.027 98.8676 201.608C98.6949 201.19 98.4606 200.955 98.2163 200.955H79.5304Z" fill="#E6E6E6"/>
<path d="M79.5304 214.097C79.4093 214.096 79.2894 214.154 79.1774 214.266C79.0654 214.377 78.9637 214.542 78.878 214.749C78.7923 214.956 78.7243 215.202 78.6779 215.473C78.6315 215.744 78.6076 216.034 78.6076 216.327C78.6076 216.621 78.6315 216.911 78.6779 217.182C78.7243 217.453 78.7923 217.699 78.878 217.906C78.9637 218.113 79.0654 218.278 79.1774 218.389C79.2894 218.501 79.4093 218.559 79.5304 218.558H98.2163C98.4606 218.558 98.6949 218.323 98.8676 217.905C99.0404 217.486 99.1374 216.919 99.1374 216.327C99.1374 215.736 99.0404 215.169 98.8676 214.75C98.6949 214.332 98.4606 214.097 98.2163 214.097H79.5304Z" fill="#E6E6E6"/>
<path d="M88.8734 255.777C87.7267 255.777 86.6057 254.954 85.6522 253.411C84.6987 251.868 83.9555 249.675 83.5167 247.11C83.0778 244.544 82.963 241.721 83.1867 238.998C83.4105 236.274 83.9627 233.772 84.7736 231.809C85.5844 229.845 86.6176 228.508 87.7423 227.966C88.867 227.425 90.0328 227.703 91.0923 228.765C92.1517 229.828 93.0573 231.628 93.6944 233.937C94.3315 236.245 94.6715 238.96 94.6715 241.737C94.6698 245.459 94.0584 249.028 92.9714 251.66C91.8844 254.292 90.4106 255.773 88.8734 255.777Z" fill="#3C4E71"/>
<path d="M158.498 0H191.061C191.421 0.0010228 191.765 0.347496 192.02 0.963418C192.274 1.57934 192.417 2.41442 192.418 3.28546V85.406C192.417 86.277 192.274 87.1121 192.02 87.728C191.765 88.3439 191.421 88.6904 191.061 88.6914H158.498C158.138 88.6904 157.793 88.3439 157.539 87.728C157.285 87.1121 157.142 86.277 157.141 85.406V3.28546C157.142 2.41442 157.285 1.57934 157.539 0.963418C157.793 0.347496 158.138 0.0010228 158.498 0ZM191.061 87.3772C191.277 87.3767 191.484 87.1688 191.636 86.7992C191.789 86.4297 191.875 85.9286 191.875 85.406V3.28546C191.875 2.76282 191.789 2.26175 191.636 1.89219C191.484 1.52262 191.277 1.31475 191.061 1.31418H158.498C158.282 1.31475 158.075 1.52262 157.923 1.89219C157.77 2.26175 157.684 2.76282 157.684 3.28546V85.406C157.684 85.9286 157.77 86.4297 157.923 86.7992C158.075 87.1688 158.282 87.3767 158.498 87.3772H191.061Z" fill="#3F3D56"/>
<path d="M184.122 71.7567C184.367 71.7567 184.601 71.5217 184.774 71.1034C184.946 70.6851 185.044 70.1177 185.044 69.5261C185.044 68.9346 184.946 68.3672 184.774 67.9489C184.601 67.5306 184.367 67.2956 184.122 67.2956H165.437C165.192 67.2956 164.958 67.5306 164.785 67.9489C164.612 68.3672 164.515 68.9346 164.515 69.5261C164.515 70.1177 164.612 70.6851 164.785 71.1034C164.958 71.5217 165.192 71.7567 165.437 71.7567H184.122Z" fill="#E6E6E6"/>
<path d="M184.122 58.6148C184.367 58.6148 184.601 58.3798 184.774 57.9615C184.946 57.5432 185.044 56.9759 185.044 56.3843C185.044 55.7927 184.946 55.2254 184.774 54.8071C184.601 54.3888 184.367 54.1537 184.122 54.1537H165.437C165.192 54.1537 164.958 54.3888 164.785 54.8071C164.612 55.2254 164.515 55.7927 164.515 56.3843C164.515 56.9759 164.612 57.5432 164.785 57.9615C164.958 58.3798 165.192 58.6148 165.437 58.6148H184.122Z" fill="#E6E6E6"/>
<path d="M174.779 16.9348C175.926 16.9348 177.047 17.7582 178.001 19.301C178.954 20.8437 179.697 23.0365 180.136 25.602C180.575 28.1675 180.69 30.9905 180.466 33.7141C180.242 36.4376 179.69 38.9394 178.879 40.9029C178.068 42.8665 177.035 44.2037 175.911 44.7454C174.786 45.2872 173.62 45.0091 172.561 43.9464C171.501 42.8838 170.596 41.0842 169.958 38.7753C169.321 36.4664 168.981 33.7519 168.981 30.975C168.983 27.2526 169.594 23.6838 170.681 21.0517C171.768 18.4195 173.242 16.939 174.779 16.9348Z" fill="#3C4E71"/>
<path d="M62.758 169.895C68.5202 159.088 75.2523 151.718 82.4093 148.383C89.6233 145.054 97.0621 145.98 104.097 151.081C107.634 153.631 111.031 157.196 114.218 161.701C117.465 166.297 120.399 171.955 123.222 177.946C126.082 184.015 128.847 190.354 131.832 196.067C140.355 212.564 150.936 221.577 161.847 221.635C162.748 221.638 163.649 221.578 164.549 221.454C165.037 221.389 165.04 219.542 164.549 219.608C153.427 221.091 142.444 213.054 133.522 196.905C130.428 191.303 127.603 184.897 124.719 178.689C121.923 172.671 119.052 166.817 115.879 161.982C108.12 150.144 99.0925 144.101 89.9237 144.607C80.755 145.113 71.8508 152.146 64.3219 164.827C63.6061 166.033 62.9068 167.292 62.2188 168.589C61.832 169.318 62.3751 170.616 62.758 169.895Z" fill="#3F3D56"/>
<path d="M62.3532 178.819C64.5416 178.819 66.3157 174.523 66.3157 169.224C66.3157 163.925 64.5416 159.629 62.3532 159.629C60.1648 159.629 58.3907 163.925 58.3907 169.224C58.3907 174.523 60.1648 178.819 62.3532 178.819Z" fill="#3F3D56"/>
<path d="M209.766 306.218C211.954 306.218 213.729 301.922 213.729 296.623C213.729 291.323 211.954 287.027 209.766 287.027C207.578 287.027 205.804 291.323 205.804 296.623C205.804 301.922 207.578 306.218 209.766 306.218Z" fill="#3F3D56"/>
<path d="M230.525 241.963H165.869C165.509 241.962 165.164 241.616 164.91 241C164.655 240.384 164.512 239.549 164.512 238.678V157.215C164.512 156.344 164.655 155.509 164.91 154.893C165.164 154.277 165.509 153.93 165.869 153.929H230.525C230.884 153.93 231.229 154.277 231.484 154.893C231.738 155.508 231.881 156.344 231.881 157.215V238.678C231.881 239.549 231.738 240.384 231.484 241C231.229 241.616 230.884 241.962 230.525 241.963ZM165.869 155.243C165.653 155.244 165.446 155.452 165.293 155.821C165.141 156.191 165.055 156.692 165.055 157.215V238.678C165.055 239.201 165.141 239.702 165.293 240.071C165.446 240.441 165.653 240.649 165.869 240.649H230.525C230.741 240.649 230.947 240.441 231.1 240.071C231.253 239.702 231.339 239.201 231.339 238.678V157.215C231.339 156.692 231.253 156.191 231.1 155.821C230.947 155.452 230.741 155.244 230.525 155.243H165.869Z" fill="#3F3D56"/>
<path d="M176.71 196.171C179.762 196.171 182.237 190.179 182.237 182.787C182.237 175.396 179.762 169.404 176.71 169.404C173.658 169.404 171.183 175.396 171.183 182.787C171.183 190.179 173.658 196.171 176.71 196.171Z" fill="#3C4E71"/>
<path d="M189.474 173.865C189.353 173.865 189.233 173.922 189.121 174.034C189.009 174.146 188.908 174.31 188.822 174.517C188.736 174.724 188.668 174.97 188.622 175.241C188.575 175.512 188.552 175.802 188.552 176.096C188.552 176.389 188.575 176.679 188.622 176.95C188.668 177.221 188.736 177.467 188.822 177.674C188.908 177.882 189.009 178.046 189.121 178.158C189.233 178.269 189.353 178.327 189.474 178.326H224.289C224.533 178.326 224.768 178.091 224.94 177.673C225.113 177.255 225.21 176.687 225.21 176.096C225.21 175.504 225.113 174.937 224.94 174.518C224.768 174.1 224.533 173.865 224.289 173.865H189.474Z" fill="#E6E6E6"/>
<path d="M189.474 187.248C189.353 187.248 189.233 187.305 189.121 187.417C189.009 187.529 188.908 187.693 188.822 187.9C188.736 188.107 188.668 188.353 188.622 188.624C188.575 188.895 188.552 189.186 188.552 189.479C188.552 189.772 188.575 190.063 188.622 190.333C188.668 190.604 188.736 190.85 188.822 191.058C188.908 191.265 189.009 191.429 189.121 191.541C189.233 191.653 189.353 191.71 189.474 191.709H208.16C208.404 191.709 208.639 191.474 208.812 191.056C208.984 190.638 209.081 190.07 209.081 189.479C209.081 188.887 208.984 188.32 208.812 187.902C208.639 187.483 208.404 187.248 208.16 187.248H189.474Z" fill="#E6E6E6"/>
<path d="M172.471 208.644C171.77 208.644 171.2 209.645 171.2 210.875C171.2 212.105 171.77 213.105 172.471 213.105H223.774C224.474 213.105 225.044 212.105 225.044 210.875C225.044 209.645 224.474 208.644 223.774 208.644H172.471Z" fill="#E6E6E6"/>
<path d="M172.471 222.028C171.77 222.028 171.2 223.028 171.2 224.258C171.2 225.488 171.77 226.489 172.471 226.489H223.774C224.474 226.489 225.044 225.488 225.044 224.258C225.044 223.028 224.474 222.028 223.774 222.028H172.471Z" fill="#E6E6E6"/>
<path d="M160.671 305.556C164.319 301.724 168.392 305.064 171.83 308.596C173.6 310.415 175.352 312.356 177.184 313.792C178.726 314.998 180.305 315.903 181.906 316.502C185.118 317.693 188.386 317.742 191.604 316.645C194.839 315.553 197.992 313.333 200.964 310.055C203.92 306.811 206.652 302.486 209.065 297.231C209.372 296.559 209.673 295.872 209.968 295.17C210.319 294.337 209.779 293.032 209.428 293.865C207.105 299.349 204.438 303.908 201.526 307.373C198.626 310.826 195.533 313.232 192.345 314.515C189.147 315.821 185.885 315.957 182.67 314.92C181.066 314.394 179.482 313.561 177.933 312.426C176.154 311.025 174.408 309.383 172.705 307.509C169.235 303.9 165.379 300.366 161.566 302.855C161.129 303.148 160.701 303.517 160.287 303.961C159.838 304.433 160.225 306.024 160.671 305.556Z" fill="#3F3D56"/>
<path d="M159.262 328.201H128.715L135.904 298.05C136.033 297.509 136.218 297.061 136.441 296.749C136.664 296.437 136.918 296.272 137.175 296.272C137.433 296.272 137.686 296.437 137.909 296.749C138.132 297.061 138.318 297.509 138.447 298.05L141.518 310.93L146.739 289.03C146.9 288.353 147.132 287.791 147.412 287.4C147.691 287.01 148.008 286.804 148.331 286.804C148.653 286.804 148.97 287.01 149.25 287.4C149.529 287.791 149.761 288.353 149.923 289.03L159.262 328.201Z" fill="#3C4E71"/>
<path d="M159.291 328.193H126.728C126.368 328.192 126.023 327.845 125.769 327.23C125.515 326.614 125.372 325.779 125.371 324.907V280.898C125.372 280.027 125.515 279.192 125.769 278.576C126.023 277.96 126.368 277.614 126.728 277.613H159.291C159.651 277.614 159.995 277.96 160.25 278.576C160.504 279.192 160.647 280.027 160.648 280.898V324.907C160.647 325.779 160.504 326.614 160.25 327.23C159.995 327.845 159.651 328.192 159.291 328.193ZM126.728 278.927C126.512 278.928 126.305 279.135 126.153 279.505C126 279.875 125.914 280.376 125.914 280.898V324.907C125.914 325.43 126 325.931 126.153 326.301C126.305 326.67 126.512 326.878 126.728 326.879H159.291C159.507 326.878 159.714 326.67 159.866 326.301C160.019 325.931 160.105 325.43 160.105 324.907V280.898C160.105 280.376 160.019 279.875 159.866 279.505C159.714 279.135 159.507 278.928 159.291 278.927H126.728Z" fill="#3F3D56"/>
<path d="M223.159 289.46L217.354 296.597C215.283 299.145 213.283 298.709 212.518 293.397C212.336 292.133 212.268 290.789 212.321 289.456C212.373 288.123 212.543 286.833 212.821 285.675C213.098 284.517 213.475 283.517 213.927 282.744C214.378 281.972 214.894 281.445 215.437 281.199L220.953 278.705L244.579 259.724L258.891 235.151L264.137 255.391L247.6 276.998L223.159 289.46Z" fill="#FFB8B8"/>
<path d="M250.253 526.364L245.812 524.571L246.306 504.259H250.993L250.253 526.364Z" fill="#FFB8B8"/>
<path d="M293.354 506.524L289.056 509.771L285.716 491.1L289.9 485.985L293.354 506.524Z" fill="#FFB8B8"/>
<path d="M290.96 488.726L285.533 494.103L259.628 411.66L251.487 508.441L246.059 506.051C242.577 422.613 239.738 337.507 243.222 297.255L263.329 295.164L272.457 365.659L276.898 413.452L290.96 488.726Z" fill="#2F2E41"/>
<path d="M250.009 542.791C249.197 543.212 248.351 542.994 247.593 542.169L244.955 539.294C242.743 539.019 241.237 540.086 240.006 536.194C239.658 535.082 239.44 533.765 239.374 532.379C239.307 530.993 239.395 529.59 239.629 528.315C239.86 527.035 240.228 525.928 240.694 525.106C241.16 524.284 241.709 523.777 242.283 523.638L245.906 518.11L246.096 522.254C247.752 524.526 249.719 523.545 251.802 521.333L252.939 530.972C253.086 532.215 253.125 533.517 253.056 534.798C252.986 536.08 252.808 537.313 252.533 538.421C252.258 539.529 251.893 540.489 251.458 541.241C251.024 541.992 250.531 542.52 250.009 542.791Z" fill="#2F2E41"/>
<path d="M295.112 523.019C294.401 524.056 293.571 524.516 292.744 524.331L289.864 523.686C287.735 525.166 286.453 527.359 284.766 524.647C284.289 523.868 283.906 522.793 283.657 521.535C283.409 520.277 283.304 518.88 283.353 517.491C283.4 516.098 283.6 514.762 283.931 513.617C284.262 512.473 284.712 511.563 285.237 510.98L287.922 502.902L288.658 506.673C290.529 507.519 292.257 505.045 293.931 501.315L296.299 509.537C296.604 510.597 296.816 511.798 296.922 513.065C297.028 514.332 297.025 515.638 296.914 516.902C296.803 518.166 296.585 519.361 296.275 520.414C295.965 521.466 295.57 522.353 295.112 523.019Z" fill="#2F2E41"/>
<path d="M255.928 210.331C260.833 210.331 264.809 200.702 264.809 188.824C264.809 176.946 260.833 167.318 255.928 167.318C251.022 167.318 247.046 176.946 247.046 188.824C247.046 200.702 251.022 210.331 255.928 210.331Z" fill="#FFB8B8"/>
<path d="M266.783 234.228L255.187 228.254L253.707 204.955L261.849 200.773L266.783 234.228Z" fill="#FFB8B8"/>
<path d="M263.576 298.151H242.852L247.523 269.752C247.184 259.981 248.894 252.794 251.342 246.536L254.447 227.656C259.465 219.659 263.248 220.257 267.276 230.643C272.052 247.018 268.746 271.634 263.576 298.151Z" fill="#3C4E71"/>
<path d="M254.201 358.49L253.611 374.189C253.401 379.792 252.186 383.661 249.921 382.407C249.382 382.109 248.876 381.532 248.437 380.716C247.999 379.9 247.638 378.865 247.381 377.681C247.123 376.496 246.974 375.191 246.944 373.854C246.913 372.517 247.003 371.18 247.206 369.935L249.266 357.295L255.187 298.749L254.201 256.332H264.069L262.835 301.736L254.201 358.49Z" fill="#FFB8B8"/>
<path d="M264.809 257.527H253.46L254.256 239.6C254.308 236.499 254.837 233.558 255.739 231.354C256.641 229.15 257.851 227.842 259.131 227.687C259.809 227.604 260.487 227.849 261.126 228.406C261.765 228.962 262.352 229.821 262.853 230.93C263.355 232.04 263.76 233.38 264.046 234.871C264.332 236.363 264.492 237.977 264.519 239.62L264.809 257.527Z" fill="#3C4E71"/>
<path d="M266.92 166.71C268.763 166.71 270.258 163.091 270.258 158.627C270.258 154.162 268.763 150.543 266.92 150.543C265.076 150.543 263.581 154.162 263.581 158.627C263.581 163.091 265.076 166.71 266.92 166.71Z" fill="#2F2E41"/>
<path d="M263.48 156.648C263.535 154.597 263.91 152.673 264.53 151.27C265.15 149.866 265.968 149.087 266.817 149.092C266.748 149.071 266.679 149.045 266.609 149.034C265.726 148.898 264.856 149.617 264.192 151.032C263.527 152.448 263.122 154.444 263.065 156.583C263.009 158.722 263.305 160.828 263.889 162.438C264.473 164.048 265.298 165.03 266.181 165.169C266.251 165.18 266.32 165.175 266.39 165.176C265.548 164.917 264.778 163.891 264.237 162.307C263.697 160.723 263.426 158.699 263.48 156.648Z" fill="#2F2E41"/>
<path d="M263.461 160.1C260.484 154.119 251.944 161.72 251.393 165.741C247.367 167.07 244.319 172.758 244.319 182.872C246.712 185.246 249.435 184.954 252.378 182.872C257.069 192.129 257.39 203.767 254.537 217.133L258.047 217.303L262.398 201.906L262.606 217.524L270.651 217.133V194.752C270.677 187.31 269.97 179.96 268.588 173.313C267.334 167.415 265.388 163.971 263.461 160.1Z" fill="#2F2E41"/>
<path d="M255.969 199.643C256.851 199.643 257.566 197.22 257.566 194.231C257.566 191.242 256.851 188.819 255.969 188.819C255.088 188.819 254.373 191.242 254.373 194.231C254.373 197.22 255.088 199.643 255.969 199.643Z" fill="#FFB8B8"/>
<path d="M55.104 201.099C55.104 201.099 56.0649 160.821 61.0538 169.973C66.0427 179.125 58.8751 204.834 58.8751 204.834L55.104 201.099Z" fill="#FFB9B9"/>
<path d="M36.5432 320.572C36.5432 320.572 47.6252 350.698 41.425 352.768C35.2248 354.839 32.7859 324.388 32.7859 324.388L36.5432 320.572Z" fill="#FFB9B9"/>
<path d="M22.0822 177.97C23.4731 178.856 24.7248 180.718 25.6802 183.321C26.6356 185.925 27.2521 189.153 27.4522 192.602L30.9772 253.358L35.9189 301.822C35.9189 301.822 38.3898 307.207 37.4014 310.199C36.4131 313.19 38.6368 325.755 38.6368 325.755L32.4597 330.542C32.4597 330.542 31.7185 317.977 30.4831 317.378C29.3973 316.853 17.2434 238.232 14.3138 219.185C13.9098 216.559 13.6813 215.066 13.6813 215.066C13.6813 215.066 14.1755 174.978 22.0822 177.97Z" fill="#575A89"/>
<path d="M23.2105 494.806L27.0046 511.087C29.9428 526.277 27.3318 529.037 20.1277 521.507L18.4855 502.282L23.2105 494.806Z" fill="#FFB9B9"/>
<path d="M25.1248 516.445C25.1248 516.445 26.9259 509.344 27.5774 510.532C28.2288 511.721 30.9158 516.871 30.9158 516.871L34.4158 524.989C34.4158 524.989 46.2405 528.016 38.7268 538.049C31.2131 548.081 27.0608 539.763 27.0608 539.763C27.0608 539.763 16.5371 541.088 16.7068 533.978C16.8766 526.868 20.2706 515.62 20.2706 515.62C20.2706 515.62 24.5481 522.565 25.1248 516.445Z" fill="#2F2E41"/>
<path d="M6.37387 310.766L9.93091 414.988C9.93091 414.988 10.0495 477.292 13.8436 489.35C17.6378 501.409 17.7563 507.438 17.7563 507.438L25.5818 497.677C25.5818 497.677 21.5505 481.41 22.3805 478.92C22.8921 477.341 23.2562 475.512 23.4476 473.559L21.3134 409.246L25.3447 297.272L6.37387 310.766Z" fill="#2F2E41"/>
<path d="M16.0963 494.806L12.7764 516.052L5.24734 508.43L9.21944 492.509L16.0963 494.806Z" fill="#FFB9B9"/>
<path d="M10.5578 508.896C10.5578 508.896 13.3816 504.622 13.7346 506.332C14.0876 508.041 15.4994 515.306 15.4994 515.306L17.0878 525.99C17.0878 525.99 26.7946 540.948 18.4997 541.803C10.2049 542.658 8.08702 531.119 8.08702 531.119C8.08702 531.119 -1.26675 521.289 0.145145 515.306C1.55705 509.323 6.49865 503.118 6.49865 503.118C6.49865 503.118 8.96945 513.597 10.5578 508.896Z" fill="#2F2E41"/>
<path d="M36.49 311.053L38.3871 406.949C38.3871 406.949 21.0762 493.657 19.1792 495.954C18.6139 496.661 18.1128 497.635 17.7055 498.818C17.2982 500.002 16.993 501.371 16.8078 502.845L6.37387 496.528L11.1166 478.153L21.5505 416.711C21.5505 416.711 23.2105 414.988 23.6847 409.246C24.159 403.504 25.1075 403.504 22.7362 402.355C20.3648 401.207 20.3648 395.464 20.3648 395.464L12.5394 308.182L36.49 311.053Z" fill="#2F2E41"/>
<path d="M37.3161 141.316C38.1552 128.795 34.6436 116.997 29.4726 114.965C24.3016 112.933 19.4294 121.436 18.5903 133.958C17.7511 146.479 21.2628 158.277 26.4338 160.309C31.6048 162.341 36.477 153.838 37.3161 141.316Z" fill="#FFB9B9"/>
<path d="M19.5349 139.073C19.5349 139.073 18.8235 168.358 17.8749 171.229C16.9264 174.1 27.8346 173.526 27.8346 173.526C27.8346 173.526 27.1232 148.834 27.8346 146.538C28.546 144.241 19.5349 139.073 19.5349 139.073Z" fill="#FFB9B9"/>
<path d="M37.2005 317.37C37.2005 317.37 10.4042 311.629 5.42566 317.37C5.42566 317.37 7.25841 300.907 6.78485 299.186C6.44044 297.928 7.39064 251.031 7.09236 223.978C6.92323 208.713 5.46871 193.805 9.69696 182.472C11.1361 178.622 12.7413 175.39 14.4357 173.812C14.4357 173.812 13.9621 162.903 16.333 162.329C16.333 162.329 25.3461 160.029 28.6641 166.924C29.725 169.113 30.3923 175.785 30.463 181.534C28.8209 201.088 29.4021 222.787 30.9089 245.297C31.0012 246.727 31.1027 248.164 31.2041 249.601C32.8032 271.925 35.2202 294.942 37.2005 317.37Z" fill="#575A89"/>
<path d="M22.9978 144.405C23.8 144.289 24.5833 144.946 25.3799 145.202C28.23 146.118 31.1949 141.11 31.8242 134.317C31.8747 133.412 31.986 132.534 32.1538 131.716C32.5925 129.982 33.5914 129.651 34.4149 130.05C35.2385 130.449 36.0191 131.382 36.8577 131.489C38.1526 131.653 39.3958 129.723 40.0859 127.065C40.7381 124.322 41.0154 121.151 40.8782 118.003L40.2575 119.581C40.0052 118.289 39.9078 116.851 39.9764 115.431C39.6474 115.219 39.3015 115.215 38.9717 115.42C38.6419 115.624 38.3393 116.03 38.0928 116.599C37.5455 116.74 37.9586 114.14 37.5519 113.242C37.3541 112.947 37.1184 112.841 36.8901 112.942C35.7256 112.969 34.7836 110.812 33.866 109.076C32.2761 106.074 30.4168 104.021 28.4385 103.081C27.1236 102.46 25.7254 102.36 24.4784 103.546C23.4717 104.64 22.5632 106.201 21.804 108.14C19.8517 112.686 18.1229 118.027 17.3107 124.284C16.6504 129.408 16.6317 134.892 17.2569 140.042C17.5842 142.717 18.5705 151.878 20.0145 152.091C21.8288 152.359 20.7395 144.731 22.9978 144.405Z" fill="#2F2E41"/>
<path d="M26.924 180.789L30.3223 181.671C30.3223 181.671 33.6583 197.343 33.416 200.612C33.1737 203.88 32.6462 201.896 34.1476 207.126C35.6491 212.356 39.9096 225.874 40.4372 227.859C40.9648 229.844 55.3479 203.27 54.4537 195.308C54.4537 195.308 58.9963 203.199 60.9424 204.25C60.9424 204.25 46.1195 251.324 44.0539 257.349C41.9882 263.373 40.3258 262.136 37.4871 258.564C34.6483 254.992 20.2873 219.363 20.2873 219.363L26.924 180.789Z" fill="#575A89"/>
<path opacity="0.1" d="M31.2041 249.601L19.3927 220.999L22.3817 218.639L30.9089 245.297C31.0012 246.727 31.1027 248.164 31.2041 249.601Z" fill="black"/>
</g>
<defs>
<clipPath id="clip0_13_102">
<rect width="297" height="543" fill="white"/>
</clipPath>
</defs>
</svg>
