<svg width="110" height="92" viewBox="0 0 110 92" fill="none" xmlns="http://www.w3.org/2000/svg">
<path d="M20.4003 19.32C22.1763 19.32 23.7283 19.664 25.0563 20.352C26.4003 21.024 27.4323 22 28.1523 23.28C28.8883 24.544 29.2563 26.024 29.2563 27.72C29.2563 29.416 28.8883 30.888 28.1523 32.136C27.4323 33.384 26.4003 34.344 25.0563 35.016C23.7283 35.672 22.1763 36 20.4003 36H14.9523V19.32H20.4003ZM20.4003 33.768C22.3523 33.768 23.8483 33.24 24.8883 32.184C25.9283 31.128 26.4483 29.64 26.4483 27.72C26.4483 25.784 25.9283 24.272 24.8883 23.184C23.8483 22.096 22.3523 21.552 20.4003 21.552H17.6883V33.768H20.4003ZM33.36 21.024C32.864 21.024 32.448 20.856 32.112 20.52C31.776 20.184 31.608 19.768 31.608 19.272C31.608 18.776 31.776 18.36 32.112 18.024C32.448 17.688 32.864 17.52 33.36 17.52C33.84 17.52 34.248 17.688 34.584 18.024C34.92 18.36 35.088 18.776 35.088 19.272C35.088 19.768 34.92 20.184 34.584 20.52C34.248 20.856 33.84 21.024 33.36 21.024ZM34.704 22.776V36H31.968V22.776H34.704ZM43.6241 22.56C44.6481 22.56 45.5521 22.768 46.3361 23.184C47.1361 23.584 47.7601 24.088 48.2081 24.696V22.776H50.9681V36.216C50.9681 37.432 50.7121 38.512 50.2001 39.456C49.6881 40.416 48.9441 41.168 47.9681 41.712C47.0081 42.256 45.8561 42.528 44.5121 42.528C42.7201 42.528 41.2321 42.104 40.0481 41.256C38.8641 40.424 38.1921 39.288 38.0321 37.848H40.7441C40.9521 38.536 41.3921 39.088 42.0641 39.504C42.7521 39.936 43.5681 40.152 44.5121 40.152C45.6161 40.152 46.5041 39.816 47.1761 39.144C47.8641 38.472 48.2081 37.496 48.2081 36.216V34.008C47.7441 34.632 47.1121 35.16 46.3121 35.592C45.5281 36.008 44.6321 36.216 43.6241 36.216C42.4721 36.216 41.4161 35.928 40.4561 35.352C39.5121 34.76 38.7601 33.944 38.2001 32.904C37.6561 31.848 37.3841 30.656 37.3841 29.328C37.3841 28 37.6561 26.824 38.2001 25.8C38.7601 24.776 39.5121 23.984 40.4561 23.424C41.4161 22.848 42.4721 22.56 43.6241 22.56ZM48.2081 29.376C48.2081 28.464 48.0161 27.672 47.6321 27C47.2641 26.328 46.7761 25.816 46.1681 25.464C45.5601 25.112 44.9041 24.936 44.2001 24.936C43.4961 24.936 42.8401 25.112 42.2321 25.464C41.6241 25.8 41.1281 26.304 40.7441 26.976C40.3761 27.632 40.1921 28.416 40.1921 29.328C40.1921 30.24 40.3761 31.04 40.7441 31.728C41.1281 32.416 41.6241 32.944 42.2321 33.312C42.8561 33.664 43.5121 33.84 44.2001 33.84C44.9041 33.84 45.5601 33.664 46.1681 33.312C46.7761 32.96 47.2641 32.448 47.6321 31.776C48.0161 31.088 48.2081 30.288 48.2081 29.376ZM55.9537 21.024C55.4577 21.024 55.0417 20.856 54.7057 20.52C54.3697 20.184 54.2017 19.768 54.2017 19.272C54.2017 18.776 54.3697 18.36 54.7057 18.024C55.0417 17.688 55.4577 17.52 55.9537 17.52C56.4337 17.52 56.8417 17.688 57.1777 18.024C57.5137 18.36 57.6817 18.776 57.6817 19.272C57.6817 19.768 57.5137 20.184 57.1777 20.52C56.8417 20.856 56.4337 21.024 55.9537 21.024ZM57.2977 22.776V36H54.5617V22.776H57.2977ZM64.0818 25.008V32.328C64.0818 32.824 64.1938 33.184 64.4178 33.408C64.6578 33.616 65.0578 33.72 65.6178 33.72H67.2978V36H65.1378C63.9058 36 62.9618 35.712 62.3058 35.136C61.6498 34.56 61.3218 33.624 61.3218 32.328V25.008H59.7618V22.776H61.3218V19.488H64.0818V22.776H67.2978V25.008H64.0818ZM68.9075 29.328C68.9075 28 69.1795 26.824 69.7235 25.8C70.2835 24.776 71.0355 23.984 71.9795 23.424C72.9395 22.848 73.9955 22.56 75.1475 22.56C76.1875 22.56 77.0915 22.768 77.8595 23.184C78.6435 23.584 79.2675 24.088 79.7315 24.696V22.776H82.4915V36H79.7315V34.032C79.2675 34.656 78.6355 35.176 77.8355 35.592C77.0355 36.008 76.1235 36.216 75.0995 36.216C73.9635 36.216 72.9235 35.928 71.9795 35.352C71.0355 34.76 70.2835 33.944 69.7235 32.904C69.1795 31.848 68.9075 30.656 68.9075 29.328ZM79.7315 29.376C79.7315 28.464 79.5395 27.672 79.1555 27C78.7875 26.328 78.2995 25.816 77.6915 25.464C77.0835 25.112 76.4275 24.936 75.7235 24.936C75.0195 24.936 74.3635 25.112 73.7555 25.464C73.1475 25.8 72.6515 26.304 72.2675 26.976C71.8995 27.632 71.7155 28.416 71.7155 29.328C71.7155 30.24 71.8995 31.04 72.2675 31.728C72.6515 32.416 73.1475 32.944 73.7555 33.312C74.3795 33.664 75.0355 33.84 75.7235 33.84C76.4275 33.84 77.0835 33.664 77.6915 33.312C78.2995 32.96 78.7875 32.448 79.1555 31.776C79.5395 31.088 79.7315 30.288 79.7315 29.376ZM88.8212 18.24V36H86.0852V18.24H88.8212ZM26.551 55.32L20.287 72H17.119L10.831 55.32H13.759L18.703 69.192L23.671 55.32H26.551ZM30.2311 57.024C29.7351 57.024 29.3191 56.856 28.9831 56.52C28.6471 56.184 28.4791 55.768 28.4791 55.272C28.4791 54.776 28.6471 54.36 28.9831 54.024C29.3191 53.688 29.7351 53.52 30.2311 53.52C30.7111 53.52 31.1191 53.688 31.4551 54.024C31.7911 54.36 31.9591 54.776 31.9591 55.272C31.9591 55.768 31.7911 56.184 31.4551 56.52C31.1191 56.856 30.7111 57.024 30.2311 57.024ZM31.5751 58.776V72H28.8391V58.776H31.5751ZM39.9672 72.216C38.9272 72.216 37.9912 72.032 37.1592 71.664C36.3432 71.28 35.6952 70.768 35.2152 70.128C34.7352 69.472 34.4792 68.744 34.4472 67.944H37.2792C37.3272 68.504 37.5912 68.976 38.0712 69.36C38.5672 69.728 39.1832 69.912 39.9192 69.912C40.6872 69.912 41.2792 69.768 41.6952 69.48C42.1272 69.176 42.3432 68.792 42.3432 68.328C42.3432 67.832 42.1032 67.464 41.6232 67.224C41.1592 66.984 40.4152 66.72 39.3912 66.432C38.3992 66.16 37.5912 65.896 36.9672 65.64C36.3432 65.384 35.7992 64.992 35.3352 64.464C34.8872 63.936 34.6632 63.24 34.6632 62.376C34.6632 61.672 34.8712 61.032 35.2872 60.456C35.7032 59.864 36.2952 59.4 37.0632 59.064C37.8472 58.728 38.7432 58.56 39.7512 58.56C41.2552 58.56 42.4632 58.944 43.3752 59.712C44.3032 60.464 44.7992 61.496 44.8632 62.808H42.1272C42.0792 62.216 41.8392 61.744 41.4072 61.392C40.9752 61.04 40.3912 60.864 39.6552 60.864C38.9352 60.864 38.3832 61 37.9992 61.272C37.6152 61.544 37.4232 61.904 37.4232 62.352C37.4232 62.704 37.5512 63 37.8072 63.24C38.0632 63.48 38.3752 63.672 38.7432 63.816C39.1112 63.944 39.6552 64.112 40.3752 64.32C41.3352 64.576 42.1192 64.84 42.7272 65.112C43.3512 65.368 43.8872 65.752 44.3352 66.264C44.7832 66.776 45.0152 67.456 45.0312 68.304C45.0312 69.056 44.8232 69.728 44.4072 70.32C43.9912 70.912 43.3992 71.376 42.6312 71.712C41.8792 72.048 40.9912 72.216 39.9672 72.216ZM49.3795 57.024C48.8835 57.024 48.4675 56.856 48.1315 56.52C47.7955 56.184 47.6275 55.768 47.6275 55.272C47.6275 54.776 47.7955 54.36 48.1315 54.024C48.4675 53.688 48.8835 53.52 49.3795 53.52C49.8595 53.52 50.2675 53.688 50.6035 54.024C50.9395 54.36 51.1075 54.776 51.1075 55.272C51.1075 55.768 50.9395 56.184 50.6035 56.52C50.2675 56.856 49.8595 57.024 49.3795 57.024ZM50.7235 58.776V72H47.9875V58.776H50.7235ZM57.5076 61.008V68.328C57.5076 68.824 57.6196 69.184 57.8436 69.408C58.0836 69.616 58.4836 69.72 59.0436 69.72H60.7236V72H58.5636C57.3316 72 56.3876 71.712 55.7316 71.136C55.0756 70.56 54.7476 69.624 54.7476 68.328V61.008H53.1876V58.776H54.7476V55.488H57.5076V58.776H60.7236V61.008H57.5076ZM64.6373 57.024C64.1413 57.024 63.7253 56.856 63.3893 56.52C63.0533 56.184 62.8853 55.768 62.8853 55.272C62.8853 54.776 63.0533 54.36 63.3893 54.024C63.7253 53.688 64.1413 53.52 64.6373 53.52C65.1173 53.52 65.5253 53.688 65.8613 54.024C66.1973 54.36 66.3653 54.776 66.3653 55.272C66.3653 55.768 66.1973 56.184 65.8613 56.52C65.5253 56.856 65.1173 57.024 64.6373 57.024ZM65.9813 58.776V72H63.2453V58.776H65.9813ZM76.2454 58.56C77.2854 58.56 78.2134 58.776 79.0294 59.208C79.8614 59.64 80.5094 60.28 80.9734 61.128C81.4374 61.976 81.6694 63 81.6694 64.2V72H78.9574V64.608C78.9574 63.424 78.6614 62.52 78.0694 61.896C77.4774 61.256 76.6694 60.936 75.6454 60.936C74.6214 60.936 73.8054 61.256 73.1974 61.896C72.6054 62.52 72.3094 63.424 72.3094 64.608V72H69.5734V58.776H72.3094V60.288C72.7574 59.744 73.3254 59.32 74.0134 59.016C74.7174 58.712 75.4614 58.56 76.2454 58.56ZM90.4874 58.56C91.5114 58.56 92.4154 58.768 93.1994 59.184C93.9994 59.584 94.6234 60.088 95.0714 60.696V58.776H97.8314V72.216C97.8314 73.432 97.5754 74.512 97.0634 75.456C96.5514 76.416 95.8074 77.168 94.8314 77.712C93.8714 78.256 92.7194 78.528 91.3754 78.528C89.5834 78.528 88.0954 78.104 86.9114 77.256C85.7274 76.424 85.0554 75.288 84.8954 73.848H87.6074C87.8154 74.536 88.2554 75.088 88.9274 75.504C89.6154 75.936 90.4314 76.152 91.3754 76.152C92.4794 76.152 93.3674 75.816 94.0394 75.144C94.7274 74.472 95.0714 73.496 95.0714 72.216V70.008C94.6074 70.632 93.9754 71.16 93.1754 71.592C92.3914 72.008 91.4954 72.216 90.4874 72.216C89.3354 72.216 88.2794 71.928 87.3194 71.352C86.3754 70.76 85.6234 69.944 85.0634 68.904C84.5194 67.848 84.2474 66.656 84.2474 65.328C84.2474 64 84.5194 62.824 85.0634 61.8C85.6234 60.776 86.3754 59.984 87.3194 59.424C88.2794 58.848 89.3354 58.56 90.4874 58.56ZM95.0714 65.376C95.0714 64.464 94.8794 63.672 94.4954 63C94.1274 62.328 93.6394 61.816 93.0314 61.464C92.4234 61.112 91.7674 60.936 91.0634 60.936C90.3594 60.936 89.7034 61.112 89.0954 61.464C88.4874 61.8 87.9914 62.304 87.6074 62.976C87.2394 63.632 87.0554 64.416 87.0554 65.328C87.0554 66.24 87.2394 67.04 87.6074 67.728C87.9914 68.416 88.4874 68.944 89.0954 69.312C89.7194 69.664 90.3754 69.84 91.0634 69.84C91.7674 69.84 92.4234 69.664 93.0314 69.312C93.6394 68.96 94.1274 68.448 94.4954 67.776C94.8794 67.088 95.0714 66.288 95.0714 65.376Z" fill="#33124C"/>
</svg>
