<svg width="297" height="211" viewBox="0 0 297 211" fill="none" xmlns="http://www.w3.org/2000/svg">
<g clip-path="url(#clip0_27_613)">
<path d="M227.39 208.614C223.588 204.796 221.278 198.765 221.884 192.893C222.49 187.022 226.241 181.624 231.107 180.377C235.974 179.13 241.521 182.582 242.999 188.23C243.812 177.34 244.75 165.993 249.622 156.719C254.034 148.321 261.676 142.312 269.958 141.237C278.24 140.162 286.959 144.222 292.124 151.99C297.29 159.758 298.554 171.05 294.937 179.968C292.272 186.538 287.362 191.427 282.218 195.404C265.596 208.149 245.659 213.331 226.077 209.999L227.39 208.614Z" fill="#F2F2F2"/>
<path d="M283.935 144.447C277.101 151.061 270.832 158.459 265.218 166.532C256.432 179.124 249.323 193.242 244.137 208.394C243.758 209.5 245.268 209.981 245.644 208.888C254.128 184.263 267.673 162.558 285.039 145.76C285.819 145.005 284.708 143.699 283.935 144.447Z" fill="white"/>
<path d="M95.6091 207.577C100.832 202.333 104.004 194.049 103.172 185.984C102.34 177.919 97.1874 170.506 90.5036 168.793C83.8198 167.081 76.2007 171.821 74.1706 179.58C73.0533 164.622 71.7659 149.037 65.0734 136.298C59.0135 124.764 48.5176 116.511 37.1425 115.035C25.7673 113.558 13.7908 119.135 6.69652 129.803C-0.39774 140.472 -2.13474 155.983 2.83389 168.231C6.49411 177.255 13.2375 183.97 20.3029 189.433C42.8441 206.862 70.8063 214.131 97.4128 209.479" fill="#F2F2F2"/>
<path d="M17.9452 119.444C27.3311 128.528 35.9417 138.688 43.6524 149.778C51.3643 160.855 58.1538 172.796 63.9255 185.431C67.1517 192.519 70.0498 199.811 72.607 207.275C73.1283 208.793 71.0537 209.454 70.5381 207.953C66.0087 194.795 60.4051 182.196 53.8074 170.337C47.2418 158.521 39.7272 147.489 31.369 137.398C26.6416 131.693 21.6537 126.301 16.4281 121.246C15.357 120.21 16.8829 118.416 17.9452 119.444Z" fill="white"/>
<path d="M213.191 210.538H88.5879V58.618C88.5879 26.2959 110.717 0 137.917 0H163.862C191.062 0 213.191 26.2959 213.191 58.618V210.538Z" fill="#F2F2F2"/>
<path d="M187.247 210.538H88.5879V58.618C88.5607 46.2329 91.8611 34.1608 98.0085 24.1594C98.2351 23.7924 98.4612 23.4301 98.6943 23.0718C101.668 18.4375 105.206 14.3562 109.193 10.9626C109.418 10.7678 109.644 10.5765 109.874 10.3852C113.21 7.64185 116.819 5.39925 120.618 3.7084C120.843 3.60678 121.073 3.50497 121.303 3.40731C124.739 1.95021 128.301 0.952099 131.923 0.431414C132.147 0.394965 132.378 0.366444 132.608 0.337922C136.138 -0.110525 139.697 -0.110525 143.227 0.337922C143.457 0.366444 143.687 0.394962 143.915 0.431804C147.535 0.952523 151.096 1.95051 154.532 3.40733C154.761 3.50499 154.991 3.60679 155.217 3.70861C158.97 5.37813 162.536 7.58727 165.836 10.2867C166.066 10.4739 166.295 10.6653 166.521 10.8566C168.756 12.7522 170.855 14.8639 172.797 17.1703C174.354 19.0203 175.806 20.9923 177.141 23.073C177.373 23.4301 177.599 23.7924 177.826 24.1589C183.973 34.1604 187.274 46.2327 187.247 58.618V210.538Z" fill="#CCCCCC"/>
<path d="M179.224 142.59C182.241 142.59 184.686 139.684 184.686 136.099C184.686 132.515 182.241 129.609 179.224 129.609C176.208 129.609 173.762 132.515 173.762 136.099C173.762 139.684 176.208 142.59 179.224 142.59Z" fill="#3C4E71"/>
<path d="M202.984 205.988H198.799L196.807 186.805L202.985 186.805L202.984 205.988Z" fill="#FFB8B8"/>
<path d="M195.809 204.567H203.88V210.606H190.727C190.727 209.813 190.858 209.027 191.114 208.295C191.369 207.562 191.743 206.896 192.215 206.335C192.687 205.775 193.248 205.33 193.864 205.026C194.481 204.723 195.142 204.567 195.809 204.567Z" fill="#2F2E41"/>
<path d="M223.808 205.988H219.623L217.631 186.805L223.809 186.805L223.808 205.988Z" fill="#FFB8B8"/>
<path d="M216.633 204.567H224.705V210.606H211.551C211.551 209.813 211.682 209.027 211.938 208.295C212.193 207.562 212.568 206.896 213.039 206.335C213.511 205.775 214.072 205.33 214.688 205.026C215.305 204.723 215.966 204.567 216.633 204.567Z" fill="#2F2E41"/>
<path d="M181.989 137.385C181.687 136.858 181.487 136.259 181.402 135.63C181.317 135.001 181.349 134.357 181.496 133.744C181.643 133.132 181.901 132.565 182.252 132.083C182.603 131.602 183.039 131.218 183.528 130.958L197.756 84.3612L204.756 88.9011L188.512 133.431C188.824 134.437 188.815 135.545 188.487 136.544C188.158 137.543 187.532 138.364 186.728 138.851C185.924 139.338 184.998 139.458 184.124 139.188C183.25 138.918 182.491 138.276 181.989 137.385Z" fill="#FFB8B8"/>
<path d="M221.67 146.141C221.205 145.824 220.804 145.39 220.495 144.869C220.187 144.348 219.978 143.753 219.884 143.126C219.79 142.498 219.812 141.854 219.95 141.239C220.088 140.623 220.338 140.051 220.682 139.562L216.275 90.2708L224.242 90.7033L226.074 139.188C226.726 139.93 227.127 140.93 227.2 141.999C227.273 143.068 227.014 144.132 226.471 144.989C225.928 145.846 225.139 146.436 224.255 146.649C223.37 146.861 222.45 146.68 221.67 146.141Z" fill="#FFB8B8"/>
<path d="M208.96 75.7303C213.591 75.7303 217.345 71.2695 217.345 65.7668C217.345 60.2641 213.591 55.8033 208.96 55.8033C204.33 55.8033 200.576 60.2641 200.576 65.7668C200.576 71.2695 204.33 75.7303 208.96 75.7303Z" fill="#FFB8B8"/>
<path d="M221.616 134.93H196.338L196.369 134.697C196.414 134.347 200.874 99.6318 197.585 88.2745C197.255 87.1584 197.284 85.9367 197.666 84.8445C198.049 83.7523 198.758 82.8668 199.657 82.3585C204.358 79.7277 213.383 76.4881 221 84.35C222.121 85.5259 222.996 86.9956 223.556 88.6429C224.117 90.2901 224.347 92.0696 224.229 93.8409L221.616 134.93Z" fill="#3C4E71"/>
<path d="M201.193 104.762L189.813 102.019L195.147 86.9971C195.467 85.5422 196.258 84.2971 197.349 83.535C198.44 82.7729 199.74 82.556 200.966 82.9318C202.191 83.3076 203.24 84.2455 203.884 85.5398C204.528 86.8341 204.714 88.379 204.401 89.8357L201.193 104.762Z" fill="#3C4E71"/>
<path d="M215.769 109.856L215.085 91.2197C214.566 87.7163 216.254 84.4044 218.849 83.8631C221.446 83.3237 223.981 85.7535 224.502 89.2827L227.074 106.697L215.769 109.856Z" fill="#3C4E71"/>
<path d="M220.775 132.699C224.843 151.107 225.287 174.511 224.189 200.039L218.727 199.228L208.827 150.548L203.365 200.039L197.22 199.633C195.385 172.848 193.597 149.853 196.538 134.728L220.775 132.699Z" fill="#2F2E41"/>
<path d="M214.485 73.4668C212.921 75.4468 210.016 74.3839 209.812 71.679C209.796 71.469 209.797 71.2577 209.815 71.0479C209.921 69.8498 210.503 68.762 210.364 67.4969C210.332 67.1821 210.233 66.882 210.077 66.6252C208.83 64.6418 205.904 67.5124 204.728 65.7168C204.007 64.6159 204.855 62.8824 204.301 61.6519C203.571 60.0278 201.407 60.829 200.05 59.9395C198.54 58.9499 198.63 56.1972 199.624 54.5229C200.836 52.4809 202.961 51.3914 205.06 51.2343C207.159 51.0773 209.243 51.7514 211.202 52.6588C213.428 53.6897 215.636 55.1145 217.006 57.4405C218.672 60.2693 218.832 64.0723 217.999 67.3799C217.492 69.392 215.762 71.85 214.485 73.4668Z" fill="#2F2E41"/>
<path d="M286.752 210.799H34.714C34.6064 210.799 34.5034 210.748 34.4274 210.657C34.3514 210.567 34.3087 210.444 34.3087 210.316C34.3087 210.188 34.3514 210.066 34.4274 209.975C34.5034 209.885 34.6064 209.834 34.714 209.833H286.752C286.86 209.834 286.963 209.885 287.039 209.975C287.115 210.066 287.158 210.188 287.158 210.316C287.158 210.444 287.115 210.567 287.039 210.657C286.963 210.748 286.86 210.799 286.752 210.799Z" fill="#3F3D56"/>
<path d="M160.107 166.524H115.728C115.143 166.528 114.581 166.256 114.165 165.768C113.749 165.28 113.513 164.616 113.509 163.921V46.211C113.513 45.5165 113.749 44.8525 114.165 44.3646C114.581 43.8767 115.143 43.6048 115.728 43.6086H160.107C160.691 43.6048 161.253 43.8767 161.669 44.3646C162.085 44.8525 162.321 45.5165 162.326 46.211V163.921C162.321 164.616 162.085 165.28 161.669 165.768C161.253 166.256 160.691 166.528 160.107 166.524Z" fill="white"/>
<path d="M162.326 81.696H113.509V82.5073H162.326V81.696Z" fill="#CCCCCC"/>
<path d="M162.497 127.986H113.679V128.797H162.497V127.986Z" fill="#CCCCCC"/>
<path d="M129.553 43.6086H128.871V166.93H129.553V43.6086Z" fill="#CCCCCC"/>
<path d="M146.622 43.6086H145.94V166.93H146.622V43.6086Z" fill="#CCCCCC"/>
</g>
<defs>
<clipPath id="clip0_27_613">
<rect width="297" height="211" fill="white"/>
</clipPath>
</defs>
</svg>
