<svg width="298" height="24" viewBox="0 0 298 24" fill="none" xmlns="http://www.w3.org/2000/svg">
<path d="M6.368 18.288C5.136 18.288 4.048 18.08 3.104 17.664C2.16 17.232 1.416 16.624 0.872 15.84C0.328 15.04 0.0480001 14.072 0.032 12.936H3.272C3.304 13.72 3.584 14.384 4.112 14.928C4.656 15.456 5.4 15.72 6.344 15.72C7.16 15.72 7.808 15.528 8.288 15.144C8.768 14.744 9.008 14.216 9.008 13.56C9.008 12.872 8.792 12.336 8.36 11.952C7.944 11.568 7.384 11.256 6.68 11.016C5.976 10.776 5.224 10.52 4.424 10.248C3.128 9.8 2.136 9.224 1.448 8.52C0.776 7.816 0.44 6.88 0.44 5.712C0.424 4.72 0.656 3.872 1.136 3.168C1.632 2.448 2.304 1.896 3.152 1.512C4 1.112 4.976 0.912 6.08 0.912C7.2 0.912 8.184 1.112 9.032 1.512C9.896 1.912 10.568 2.472 11.048 3.192C11.544 3.912 11.808 4.768 11.84 5.76H8.552C8.536 5.168 8.304 4.648 7.856 4.2C7.424 3.736 6.816 3.504 6.032 3.504C5.36 3.488 4.792 3.656 4.328 4.008C3.88 4.344 3.656 4.84 3.656 5.496C3.656 6.056 3.832 6.504 4.184 6.84C4.536 7.16 5.016 7.432 5.624 7.656C6.232 7.88 6.928 8.12 7.712 8.376C8.544 8.664 9.304 9 9.992 9.384C10.68 9.768 11.232 10.28 11.648 10.92C12.064 11.544 12.272 12.352 12.272 13.344C12.272 14.224 12.048 15.04 11.6 15.792C11.152 16.544 10.488 17.152 9.608 17.616C8.728 18.064 7.648 18.288 6.368 18.288ZM20.7123 18.288C19.4963 18.288 18.4243 18.024 17.4963 17.496C16.5683 16.968 15.8323 16.232 15.2883 15.288C14.7603 14.344 14.4963 13.264 14.4963 12.048C14.4963 10.832 14.7603 9.752 15.2883 8.808C15.8323 7.864 16.5683 7.128 17.4963 6.6C18.4243 6.072 19.4963 5.808 20.7123 5.808C22.2323 5.808 23.5123 6.208 24.5523 7.008C25.5923 7.792 26.2563 8.88 26.5443 10.272H23.3043C23.1443 9.696 22.8243 9.248 22.3443 8.928C21.8803 8.592 21.3283 8.424 20.6883 8.424C19.8403 8.424 19.1203 8.744 18.5283 9.384C17.9363 10.024 17.6403 10.912 17.6403 12.048C17.6403 13.184 17.9363 14.072 18.5283 14.712C19.1203 15.352 19.8403 15.672 20.6883 15.672C21.3283 15.672 21.8803 15.512 22.3443 15.192C22.8243 14.872 23.1443 14.416 23.3043 13.824H26.5443C26.2563 15.168 25.5923 16.248 24.5523 17.064C23.5123 17.88 22.2323 18.288 20.7123 18.288ZM33.3749 18.288C32.3509 18.288 31.5109 18.128 30.8549 17.808C30.1989 17.472 29.7109 17.032 29.3909 16.488C29.0709 15.944 28.9109 15.344 28.9109 14.688C28.9109 13.584 29.3429 12.688 30.2069 12C31.0709 11.312 32.3669 10.968 34.0949 10.968H37.1189V10.68C37.1189 9.864 36.8869 9.264 36.4229 8.88C35.9589 8.496 35.3829 8.304 34.6949 8.304C34.0709 8.304 33.5269 8.456 33.0629 8.76C32.5989 9.048 32.3109 9.48 32.1989 10.056H29.1989C29.2789 9.192 29.5669 8.44 30.0629 7.8C30.5749 7.16 31.2309 6.672 32.0309 6.336C32.8309 5.984 33.7269 5.808 34.7189 5.808C36.4149 5.808 37.7509 6.232 38.7269 7.08C39.7029 7.928 40.1909 9.128 40.1909 10.68V18H37.5749L37.2869 16.08C36.9349 16.72 36.4389 17.248 35.7989 17.664C35.1749 18.08 34.3669 18.288 33.3749 18.288ZM34.0709 15.888C34.9509 15.888 35.6309 15.6 36.1109 15.024C36.6069 14.448 36.9189 13.736 37.0469 12.888H34.4309C33.6149 12.888 33.0309 13.04 32.6789 13.344C32.3269 13.632 32.1509 13.992 32.1509 14.424C32.1509 14.888 32.3269 15.248 32.6789 15.504C33.0309 15.76 33.4949 15.888 34.0709 15.888ZM43.1225 18V0.719999H46.1945V18H43.1225ZM55.1174 18.288C53.9174 18.288 52.8534 18.032 51.9254 17.52C50.9974 17.008 50.2694 16.288 49.7414 15.36C49.2134 14.432 48.9494 13.36 48.9494 12.144C48.9494 10.912 49.2054 9.816 49.7174 8.856C50.2454 7.896 50.9654 7.152 51.8774 6.624C52.8054 6.08 53.8934 5.808 55.1414 5.808C56.3094 5.808 57.3414 6.064 58.2374 6.576C59.1334 7.088 59.8294 7.792 60.3254 8.688C60.8374 9.568 61.0934 10.552 61.0934 11.64C61.0934 11.816 61.0854 12 61.0694 12.192C61.0694 12.384 61.0614 12.584 61.0454 12.792H51.9974C52.0614 13.72 52.3814 14.448 52.9574 14.976C53.5494 15.504 54.2614 15.768 55.0934 15.768C55.7174 15.768 56.2374 15.632 56.6534 15.36C57.0854 15.072 57.4054 14.704 57.6134 14.256H60.7334C60.5094 15.008 60.1334 15.696 59.6054 16.32C59.0934 16.928 58.4534 17.408 57.6854 17.76C56.9334 18.112 56.0774 18.288 55.1174 18.288ZM55.1414 8.304C54.3894 8.304 53.7254 8.52 53.1494 8.952C52.5734 9.368 52.2054 10.008 52.0454 10.872H57.9734C57.9254 10.088 57.6374 9.464 57.1094 9C56.5814 8.536 55.9254 8.304 55.1414 8.304ZM75.9479 18.288C74.7159 18.288 73.6039 18.048 72.6119 17.568C71.6199 17.072 70.8279 16.328 70.2359 15.336C69.6599 14.344 69.3719 13.088 69.3719 11.568V1.2H72.4439V11.592C72.4439 12.904 72.7559 13.88 73.3799 14.52C74.0199 15.16 74.8999 15.48 76.0199 15.48C77.1239 15.48 77.9959 15.16 78.6359 14.52C79.2759 13.88 79.5959 12.904 79.5959 11.592V1.2H82.6679V11.568C82.6679 13.088 82.3639 14.344 81.7559 15.336C81.1479 16.328 80.3319 17.072 79.3079 17.568C78.2999 18.048 77.1799 18.288 75.9479 18.288ZM85.7319 23.28V6.096H88.4679L88.8039 7.8C89.1879 7.272 89.6919 6.808 90.3159 6.408C90.9559 6.008 91.7799 5.808 92.7879 5.808C93.9079 5.808 94.9079 6.08 95.7879 6.624C96.6679 7.168 97.3639 7.912 97.8759 8.856C98.3879 9.8 98.6439 10.872 98.6439 12.072C98.6439 13.272 98.3879 14.344 97.8759 15.288C97.3639 16.216 96.6679 16.952 95.7879 17.496C94.9079 18.024 93.9079 18.288 92.7879 18.288C91.8919 18.288 91.1079 18.12 90.4359 17.784C89.7639 17.448 89.2199 16.976 88.8039 16.368V23.28H85.7319ZM92.1399 15.6C93.1159 15.6 93.9239 15.272 94.5639 14.616C95.2039 13.96 95.5239 13.112 95.5239 12.072C95.5239 11.032 95.2039 10.176 94.5639 9.504C93.9239 8.832 93.1159 8.496 92.1399 8.496C91.1479 8.496 90.3319 8.832 89.6919 9.504C89.0679 10.16 88.7559 11.008 88.7559 12.048C88.7559 13.088 89.0679 13.944 89.6919 14.616C90.3319 15.272 91.1479 15.6 92.1399 15.6ZM111.523 18V12.024L105.883 1.2H109.363L113.083 8.952L116.779 1.2H120.211L114.595 12.024V18H111.523ZM125.686 18.288C124.534 18.288 123.494 18.024 122.566 17.496C121.654 16.968 120.926 16.24 120.382 15.312C119.854 14.368 119.59 13.28 119.59 12.048C119.59 10.816 119.862 9.736 120.406 8.808C120.95 7.864 121.678 7.128 122.59 6.6C123.518 6.072 124.558 5.808 125.71 5.808C126.846 5.808 127.87 6.072 128.782 6.6C129.71 7.128 130.438 7.864 130.966 8.808C131.51 9.736 131.782 10.816 131.782 12.048C131.782 13.28 131.51 14.368 130.966 15.312C130.438 16.24 129.71 16.968 128.782 17.496C127.854 18.024 126.822 18.288 125.686 18.288ZM125.686 15.624C126.486 15.624 127.182 15.328 127.774 14.736C128.366 14.128 128.662 13.232 128.662 12.048C128.662 10.864 128.366 9.976 127.774 9.384C127.182 8.776 126.494 8.472 125.71 8.472C124.894 8.472 124.19 8.776 123.598 9.384C123.022 9.976 122.734 10.864 122.734 12.048C122.734 13.232 123.022 14.128 123.598 14.736C124.19 15.328 124.886 15.624 125.686 15.624ZM138.993 18.288C137.505 18.288 136.353 17.824 135.537 16.896C134.737 15.968 134.337 14.608 134.337 12.816V6.096H137.385V12.528C137.385 13.552 137.593 14.336 138.009 14.88C138.425 15.424 139.081 15.696 139.977 15.696C140.825 15.696 141.521 15.392 142.065 14.784C142.625 14.176 142.905 13.328 142.905 12.24V6.096H145.977V18H143.265L143.025 15.984C142.657 16.688 142.121 17.248 141.417 17.664C140.729 18.08 139.921 18.288 138.993 18.288ZM149.13 18V6.096H151.866L152.154 8.328C152.586 7.56 153.17 6.952 153.906 6.504C154.658 6.04 155.538 5.808 156.546 5.808V9.048H155.682C155.01 9.048 154.41 9.152 153.882 9.36C153.354 9.568 152.938 9.928 152.634 10.44C152.346 10.952 152.202 11.664 152.202 12.576V18H149.13ZM172.045 18.288C170.349 18.288 168.893 17.928 167.677 17.208C166.461 16.472 165.525 15.456 164.869 14.16C164.213 12.848 163.885 11.336 163.885 9.624C163.885 7.912 164.213 6.4 164.869 5.088C165.525 3.776 166.461 2.752 167.677 2.016C168.893 1.28 170.349 0.912 172.045 0.912C174.061 0.912 175.709 1.416 176.989 2.424C178.285 3.416 179.093 4.816 179.413 6.624H176.029C175.821 5.712 175.373 5 174.685 4.488C174.013 3.96 173.117 3.696 171.997 3.696C170.445 3.696 169.229 4.224 168.349 5.28C167.469 6.336 167.029 7.784 167.029 9.624C167.029 11.464 167.469 12.912 168.349 13.968C169.229 15.008 170.445 15.528 171.997 15.528C173.117 15.528 174.013 15.288 174.685 14.808C175.373 14.312 175.821 13.632 176.029 12.768H179.413C179.093 14.496 178.285 15.848 176.989 16.824C175.709 17.8 174.061 18.288 172.045 18.288ZM187.772 18.288C186.62 18.288 185.58 18.024 184.652 17.496C183.74 16.968 183.012 16.24 182.468 15.312C181.94 14.368 181.676 13.28 181.676 12.048C181.676 10.816 181.948 9.736 182.492 8.808C183.036 7.864 183.764 7.128 184.676 6.6C185.604 6.072 186.644 5.808 187.796 5.808C188.932 5.808 189.956 6.072 190.868 6.6C191.796 7.128 192.524 7.864 193.052 8.808C193.596 9.736 193.868 10.816 193.868 12.048C193.868 13.28 193.596 14.368 193.052 15.312C192.524 16.24 191.796 16.968 190.868 17.496C189.94 18.024 188.908 18.288 187.772 18.288ZM187.772 15.624C188.572 15.624 189.268 15.328 189.86 14.736C190.452 14.128 190.748 13.232 190.748 12.048C190.748 10.864 190.452 9.976 189.86 9.384C189.268 8.776 188.58 8.472 187.796 8.472C186.98 8.472 186.276 8.776 185.684 9.384C185.108 9.976 184.82 10.864 184.82 12.048C184.82 13.232 185.108 14.128 185.684 14.736C186.276 15.328 186.972 15.624 187.772 15.624ZM196.615 18V6.096H199.327L199.567 8.112C199.935 7.408 200.463 6.848 201.151 6.432C201.855 6.016 202.679 5.808 203.623 5.808C205.095 5.808 206.239 6.272 207.055 7.2C207.871 8.128 208.279 9.488 208.279 11.28V18H205.207V11.568C205.207 10.544 204.999 9.76 204.583 9.216C204.167 8.672 203.519 8.4 202.639 8.4C201.775 8.4 201.063 8.704 200.503 9.312C199.959 9.92 199.687 10.768 199.687 11.856V18H196.615ZM211.216 18V6.096H213.928L214.168 8.112C214.536 7.408 215.064 6.848 215.752 6.432C216.456 6.016 217.28 5.808 218.224 5.808C219.696 5.808 220.84 6.272 221.656 7.2C222.472 8.128 222.88 9.488 222.88 11.28V18H219.808V11.568C219.808 10.544 219.6 9.76 219.184 9.216C218.768 8.672 218.12 8.4 217.24 8.4C216.376 8.4 215.664 8.704 215.104 9.312C214.56 9.92 214.288 10.768 214.288 11.856V18H211.216ZM231.602 18.288C230.402 18.288 229.338 18.032 228.41 17.52C227.482 17.008 226.754 16.288 226.226 15.36C225.698 14.432 225.434 13.36 225.434 12.144C225.434 10.912 225.69 9.816 226.202 8.856C226.73 7.896 227.45 7.152 228.362 6.624C229.29 6.08 230.378 5.808 231.626 5.808C232.794 5.808 233.826 6.064 234.722 6.576C235.618 7.088 236.314 7.792 236.81 8.688C237.322 9.568 237.578 10.552 237.578 11.64C237.578 11.816 237.57 12 237.554 12.192C237.554 12.384 237.546 12.584 237.53 12.792H228.482C228.546 13.72 228.866 14.448 229.442 14.976C230.034 15.504 230.746 15.768 231.578 15.768C232.202 15.768 232.722 15.632 233.138 15.36C233.57 15.072 233.89 14.704 234.098 14.256H237.218C236.994 15.008 236.618 15.696 236.09 16.32C235.578 16.928 234.938 17.408 234.17 17.76C233.418 18.112 232.562 18.288 231.602 18.288ZM231.626 8.304C230.874 8.304 230.21 8.52 229.634 8.952C229.058 9.368 228.69 10.008 228.53 10.872H234.458C234.41 10.088 234.122 9.464 233.594 9C233.066 8.536 232.41 8.304 231.626 8.304ZM245.994 18.288C244.778 18.288 243.706 18.024 242.778 17.496C241.85 16.968 241.114 16.232 240.57 15.288C240.042 14.344 239.778 13.264 239.778 12.048C239.778 10.832 240.042 9.752 240.57 8.808C241.114 7.864 241.85 7.128 242.778 6.6C243.706 6.072 244.778 5.808 245.994 5.808C247.514 5.808 248.794 6.208 249.834 7.008C250.874 7.792 251.538 8.88 251.826 10.272H248.586C248.426 9.696 248.106 9.248 247.626 8.928C247.162 8.592 246.61 8.424 245.97 8.424C245.122 8.424 244.402 8.744 243.81 9.384C243.218 10.024 242.922 10.912 242.922 12.048C242.922 13.184 243.218 14.072 243.81 14.712C244.402 15.352 245.122 15.672 245.97 15.672C246.61 15.672 247.162 15.512 247.626 15.192C248.106 14.872 248.426 14.416 248.586 13.824H251.826C251.538 15.168 250.874 16.248 249.834 17.064C248.794 17.88 247.514 18.288 245.994 18.288ZM259.692 18C258.444 18 257.444 17.696 256.692 17.088C255.94 16.48 255.564 15.4 255.564 13.848V8.664H253.524V6.096H255.564L255.924 2.904H258.636V6.096H261.852V8.664H258.636V13.872C258.636 14.448 258.756 14.848 258.996 15.072C259.252 15.28 259.684 15.384 260.292 15.384H261.78V18H259.692ZM266.146 4.248C265.586 4.248 265.122 4.08 264.754 3.744C264.402 3.408 264.226 2.984 264.226 2.472C264.226 1.96 264.402 1.544 264.754 1.224C265.122 0.887999 265.586 0.719999 266.146 0.719999C266.706 0.719999 267.162 0.887999 267.514 1.224C267.882 1.544 268.066 1.96 268.066 2.472C268.066 2.984 267.882 3.408 267.514 3.744C267.162 4.08 266.706 4.248 266.146 4.248ZM264.61 18V6.096H267.682V18H264.61ZM276.6 18.288C275.448 18.288 274.408 18.024 273.48 17.496C272.568 16.968 271.84 16.24 271.296 15.312C270.768 14.368 270.504 13.28 270.504 12.048C270.504 10.816 270.776 9.736 271.32 8.808C271.864 7.864 272.592 7.128 273.504 6.6C274.432 6.072 275.472 5.808 276.624 5.808C277.76 5.808 278.784 6.072 279.696 6.6C280.624 7.128 281.352 7.864 281.88 8.808C282.424 9.736 282.696 10.816 282.696 12.048C282.696 13.28 282.424 14.368 281.88 15.312C281.352 16.24 280.624 16.968 279.696 17.496C278.768 18.024 277.736 18.288 276.6 18.288ZM276.6 15.624C277.4 15.624 278.096 15.328 278.688 14.736C279.28 14.128 279.576 13.232 279.576 12.048C279.576 10.864 279.28 9.976 278.688 9.384C278.096 8.776 277.408 8.472 276.624 8.472C275.808 8.472 275.104 8.776 274.512 9.384C273.936 9.976 273.648 10.864 273.648 12.048C273.648 13.232 273.936 14.128 274.512 14.736C275.104 15.328 275.8 15.624 276.6 15.624ZM285.443 18V6.096H288.155L288.395 8.112C288.763 7.408 289.291 6.848 289.979 6.432C290.683 6.016 291.507 5.808 292.451 5.808C293.923 5.808 295.067 6.272 295.883 7.2C296.699 8.128 297.107 9.488 297.107 11.28V18H294.035V11.568C294.035 10.544 293.827 9.76 293.411 9.216C292.995 8.672 292.347 8.4 291.467 8.4C290.603 8.4 289.891 8.704 289.331 9.312C288.787 9.92 288.515 10.768 288.515 11.856V18H285.443Z" fill="#673290"/>
</svg>
