<svg width="223" height="142" viewBox="0 0 223 142" fill="none" xmlns="http://www.w3.org/2000/svg">
<g clip-path="url(#clip0_27_554)">
<path d="M55.0428 129.571L55.4964 136.995L55.4964 136.996C55.5729 138.25 55.0044 139.478 53.916 140.407C52.8276 141.336 51.3083 141.892 49.6925 141.951L49.4945 141.959L48.7519 129.803L55.0428 129.571Z" fill="#2F2E41"/>
<path d="M190.971 117.024C186.417 123.925 180.642 130.599 173.334 136.639C173.172 136.775 173.008 136.908 172.843 137.043L155.529 130.678C155.634 130.542 155.751 130.388 155.875 130.22C163.313 120.339 208.209 60.0576 206.79 46.4047C206.956 47.5308 212.277 84.7693 190.971 117.024Z" fill="#E6E6E6"/>
<path d="M176.674 137.867C176.432 137.974 176.184 138.079 175.933 138.18L162.945 133.405C163.126 133.305 163.338 133.186 163.581 133.053C167.56 130.835 179.393 124.178 190.971 117.024C203.413 109.336 215.564 101.076 217.369 97.1328C217.002 98.0369 205.614 125.521 176.674 137.867Z" fill="#E6E6E6"/>
<path d="M21.6059 141.662C32.6764 141.662 41.6508 134.693 41.6508 126.096C41.6508 117.499 32.6764 110.53 21.6059 110.53C10.5354 110.53 1.56094 117.499 1.56094 126.096C1.56094 134.693 10.5354 141.662 21.6059 141.662Z" fill="#3C4E71"/>
<path d="M29.6352 119.564H13.5765C12.8669 119.564 12.1866 119.784 11.6849 120.173C11.1831 120.563 10.9009 121.091 10.9001 121.642V130.55C10.9009 131.101 11.1831 131.629 11.6849 132.019C12.1866 132.408 12.8669 132.628 13.5765 132.628H29.6352C30.3448 132.628 31.0251 132.408 31.5269 132.019C32.0287 131.629 32.3109 131.101 32.3117 130.55V121.642C32.3109 121.091 32.0286 120.563 31.5269 120.173C31.0251 119.784 30.3448 119.564 29.6352 119.564ZM29.6352 120.751C29.7311 120.752 29.8265 120.761 29.9193 120.78L21.6077 125.929L13.3448 120.77C13.421 120.758 13.4987 120.751 13.5765 120.751H29.6352ZM29.6352 131.44H13.5765C13.2724 131.44 12.9809 131.346 12.7658 131.179C12.5508 131.012 12.4298 130.786 12.4295 130.55V121.722L21.1267 127.153C21.2622 127.237 21.4306 127.283 21.6044 127.284C21.7782 127.284 21.9469 127.238 22.0828 127.154L30.7823 121.765V130.55C30.7819 130.786 30.661 131.012 30.4459 131.179C30.2309 131.346 29.9393 131.44 29.6352 131.44Z" fill="white"/>
<path d="M98.964 103.622L103.449 103.651C103.903 103.654 104.352 103.58 104.765 103.434C105.179 103.288 105.546 103.074 105.842 102.807C106.137 102.54 106.354 102.226 106.478 101.886C106.601 101.547 106.628 101.191 106.556 100.843C106.478 100.469 106.288 100.114 106.002 99.8064C105.715 99.4992 105.34 99.2485 104.906 99.0745C104.472 98.9006 103.991 98.8081 103.503 98.8047C103.015 98.8013 102.532 98.8869 102.094 99.0548L97.8643 100.676L83.3977 103.181L77.2 98.2601L73.64 102.813L82.0033 107.831L98.964 103.622Z" fill="#FFB8B8"/>
<path d="M98.1234 139.607L92.8391 140.396C89.2297 131.561 85.319 123.194 85.3193 116.722C80.2113 121.137 73.877 123.663 66.418 124.456L67.231 114.67L73.3282 112.145L82.6598 108.8C83.4769 108.508 84.3582 108.338 85.2569 108.302C87.0039 108.23 88.7232 108.663 90.0837 109.517C91.4443 110.371 92.3499 111.586 92.6263 112.927L98.1234 139.607Z" fill="#2F2E41"/>
<path d="M72.8201 123.272L70.7139 124.515C69.8083 125.049 68.7385 125.391 67.6105 125.505C66.4826 125.619 65.3358 125.502 64.284 125.166C58.2516 121.655 53.966 122.69 50.0818 127.99C45.4228 123.907 44.2734 118.01 48.4313 111.908L71.499 112.303L76.1735 111.198L72.8201 123.272Z" fill="#2F2E41"/>
<path d="M65.1377 141.558C63.8159 141.874 62.3932 141.819 61.1187 141.402C59.8442 140.985 58.7994 140.233 58.1671 139.278C56.0941 137.86 54.3449 135.829 52.8278 133.361C51.7393 131.55 50.8046 129.685 50.0298 127.78C48.98 125.262 50.7353 122.511 54.0023 121.758C54.0995 121.735 54.1978 121.714 54.2974 121.694C58.6587 120.825 63.1375 122.778 64.6283 126.078L68.9633 135.672C69.2194 136.239 69.3292 136.839 69.2865 137.439C69.2438 138.039 69.0494 138.626 68.7144 139.168C68.3794 139.709 67.9104 140.194 67.3341 140.594C66.7578 140.995 66.0855 141.304 65.3556 141.502C65.2835 141.522 65.2108 141.541 65.1377 141.558Z" fill="#2F2E41"/>
<path opacity="0.2" d="M52.0896 132.268C52.0896 132.268 57.1706 136.687 58.1868 139.213L52.0896 132.268Z" fill="black"/>
<path d="M32.3836 111.412L30.6831 114.635C30.511 114.961 30.4326 115.313 30.4534 115.665C30.4742 116.017 30.5935 116.361 30.8033 116.674C31.013 116.986 31.308 117.26 31.6676 117.475C32.0273 117.689 32.443 117.841 32.8858 117.918C33.3624 118.001 33.8574 117.997 34.3311 117.904C34.8048 117.812 35.244 117.634 35.6132 117.386C35.9825 117.138 36.2715 116.826 36.4571 116.475C36.6426 116.124 36.7195 115.744 36.6816 115.366L36.3152 111.714L38.6945 100.353L46.88 97.713L42.7588 93.4547L33.6528 97.6203L32.3836 111.412Z" fill="#FFB8B8"/>
<path d="M73.0233 111.908C67.1837 119.526 55.5424 122.475 45.5717 116.51C47.3256 112.035 52.9884 99.6665 49.3301 99.193C41.5627 101.723 41.5514 95.7835 40.0985 92.8111L57.7803 87.7606L67.3326 89.8124L69.2907 90.3519C70.565 90.7031 71.6703 91.3488 72.4579 92.2024C73.2455 93.0559 73.6776 94.0763 73.6961 95.1262C69.6836 99.6279 66.7131 104.43 73.0233 111.908Z" fill="#3C4E71"/>
<path d="M75.2589 105.753L68.2472 101.255L70.5844 90.7593L80.1367 98.6507L75.2589 105.753Z" fill="#3C4E71"/>
<path d="M191.606 33.6512H190.603V12.3362C190.603 9.06443 188.93 5.92668 185.951 3.61319C182.972 1.2997 178.931 0 174.718 0H116.566C112.353 0 108.312 1.2997 105.333 3.61319C102.354 5.92668 100.68 9.06443 100.68 12.3362V129.272C100.68 132.544 102.354 135.682 105.333 137.995C108.312 140.309 112.353 141.608 116.566 141.608H174.718C178.931 141.608 182.971 140.309 185.95 137.995C188.93 135.682 190.603 132.544 190.603 129.272V48.8235H191.605L191.606 33.6512Z" fill="#3F3D56"/>
<path d="M175.359 3.20917H167.768C168.117 3.87383 168.251 4.59499 168.156 5.30911C168.062 6.02323 167.743 6.70839 167.228 7.30422C166.712 7.90004 166.016 8.38824 165.2 8.7258C164.384 9.06336 163.474 9.23991 162.549 9.2399H129.235C128.311 9.23984 127.401 9.06326 126.585 8.72572C125.769 8.38818 125.073 7.90004 124.557 7.3043C124.042 6.70856 123.723 6.0235 123.628 5.30947C123.534 4.59545 123.667 3.87437 124.016 3.20976H116.926C113.779 3.20976 110.762 4.18039 108.537 5.90814C106.312 7.63588 105.062 9.9792 105.062 12.4226V129.186C105.062 131.63 106.312 133.973 108.537 135.701C110.762 137.428 113.779 138.399 116.926 138.399H175.357C178.503 138.399 181.521 137.428 183.745 135.701C185.97 133.973 187.22 131.63 187.22 129.186V12.422C187.22 9.97861 185.97 7.63529 183.745 5.90755C181.521 4.1798 178.503 3.20917 175.357 3.20917L175.359 3.20917Z" fill="white"/>
<path d="M146.243 131.874C149.84 131.874 152.757 129.609 152.757 126.815C152.757 124.021 149.84 121.756 146.243 121.756C142.645 121.756 139.728 124.021 139.728 126.815C139.728 129.609 142.645 131.874 146.243 131.874Z" fill="#E6E6E6"/>
<path d="M119.814 80.0293C119.198 80.0293 118.697 80.4734 118.697 81.0193C118.697 81.5651 119.198 82.0092 119.814 82.0092H172.468C173.084 82.0092 173.585 81.5651 173.585 81.0193C173.585 80.4734 173.084 80.0293 172.468 80.0293H119.814Z" fill="#E6E6E6"/>
<path d="M119.814 103.379C119.198 103.379 118.697 103.823 118.697 104.369C118.697 104.914 119.198 105.359 119.814 105.359H172.468C173.084 105.359 173.585 104.914 173.585 104.369C173.585 103.823 173.084 103.379 172.468 103.379H119.814Z" fill="#E6E6E6"/>
<path d="M119.814 85.9692C119.198 85.9692 118.697 86.4134 118.697 86.9592C118.697 87.505 119.198 87.9492 119.814 87.9492H142.471C143.087 87.9492 143.588 87.505 143.588 86.9592C143.588 86.4134 143.087 85.9692 142.471 85.9692H119.814Z" fill="#E6E6E6"/>
<path d="M119.814 91.6311C119.198 91.6311 118.697 92.0753 118.697 92.6211C118.697 93.1669 119.198 93.6111 119.814 93.6111H172.468C173.084 93.6111 173.585 93.1669 173.585 92.6211C173.585 92.0753 173.084 91.6311 172.468 91.6311H119.814Z" fill="#E6E6E6"/>
<path d="M119.814 97.571C119.198 97.571 118.697 98.0152 118.697 98.561C118.697 99.1068 119.198 99.551 119.814 99.551H142.471C143.087 99.551 143.588 99.1068 143.588 98.561C143.588 98.0152 143.087 97.571 142.471 97.571H119.814Z" fill="#E6E6E6"/>
<path d="M129.754 34.9514H162.531C162.893 34.9517 163.24 35.0635 163.496 35.2624C163.752 35.4612 163.896 35.7307 163.897 36.0119V62.5205C163.896 62.8017 163.752 63.0712 163.496 63.2701C163.24 63.4689 162.893 63.5807 162.531 63.5811H129.754C129.392 63.5807 129.045 63.4689 128.789 63.2701C128.533 63.0712 128.389 62.8017 128.389 62.5205V36.0119C128.389 35.7307 128.533 35.4612 128.789 35.2623C129.045 35.0635 129.392 34.9517 129.754 34.9514Z" fill="#3C4E71"/>
<path d="M155.547 58.1145C155.669 58.1147 155.79 58.0962 155.902 58.0601C156.015 58.0241 156.117 57.9711 156.204 57.9042C156.29 57.8374 156.358 57.758 156.405 57.6706C156.452 57.5832 156.476 57.4895 156.476 57.3948C156.476 57.3002 156.452 57.2064 156.406 57.119C156.359 57.0315 156.291 56.9521 156.204 56.8852C156.118 56.8183 156.016 56.7652 155.903 56.7291C155.79 56.6929 155.67 56.6743 155.548 56.6744H136.738C136.616 56.6742 136.496 56.6927 136.383 56.7288C136.27 56.7649 136.168 56.8178 136.082 56.8847C135.995 56.9515 135.927 57.0309 135.88 57.1183C135.833 57.2058 135.809 57.2995 135.809 57.3941C135.809 57.4888 135.833 57.5825 135.88 57.6699C135.926 57.7574 135.995 57.8368 136.081 57.9037C136.167 57.9706 136.27 58.0237 136.382 58.0599C136.495 58.096 136.616 58.1146 136.737 58.1145H155.547Z" fill="white"/>
<path d="M155.547 53.8723C155.793 53.8723 156.029 53.7964 156.203 53.6614C156.376 53.5264 156.474 53.3432 156.474 53.1523C156.474 52.9613 156.376 52.7782 156.203 52.6431C156.029 52.5081 155.793 52.4323 155.547 52.4323H136.738C136.492 52.4322 136.257 52.5079 136.083 52.6429C135.909 52.7779 135.811 52.961 135.811 53.1519C135.811 53.3429 135.908 53.5261 136.082 53.6612C136.256 53.7963 136.491 53.8722 136.737 53.8723H155.547Z" fill="white"/>
<path d="M146.143 40.4179C147.297 40.4179 148.425 40.6837 149.385 41.1817C150.345 41.6797 151.093 42.3876 151.535 43.2157C151.976 44.0439 152.092 44.9551 151.867 45.8343C151.642 46.7135 151.086 47.521 150.269 48.1549C149.453 48.7887 148.413 49.2203 147.281 49.3952C146.149 49.5701 144.976 49.4803 143.909 49.1373C142.843 48.7943 141.931 48.2134 141.29 47.4681C140.649 46.7228 140.306 45.8465 140.306 44.9501C140.308 43.7485 140.924 42.5965 142.018 41.7469C143.112 40.8972 144.595 40.4193 146.143 40.4179Z" fill="white"/>
<path d="M71.6767 86.3865H54.3504C53.994 86.3862 53.6523 86.2761 53.4003 86.0804C53.1483 85.8847 53.0065 85.6194 53.0061 85.3426V79.543C53.0061 77.4819 54.0605 75.5052 55.9372 74.0478C57.814 72.5904 60.3594 71.7716 63.0136 71.7716C65.6677 71.7716 68.2131 72.5904 70.0899 74.0478C71.9667 75.5052 73.021 77.4819 73.021 79.543V85.3426C73.0206 85.6194 72.8788 85.8847 72.6268 86.0804C72.3748 86.2761 72.0331 86.3862 71.6767 86.3865Z" fill="#2F2E41"/>
<path d="M71.3645 83.0724C73.3081 80.3113 72.0014 76.8493 68.4458 75.3399C64.8902 73.8306 60.4322 74.8453 58.4885 77.6065C56.5449 80.3676 57.8516 83.8295 61.4072 85.3389C64.9628 86.8483 69.4208 85.8335 71.3645 83.0724Z" fill="#FFB6B6"/>
<path d="M75.3885 80.123H64.7939L64.6852 78.9418L64.142 80.123H62.5107L62.2954 77.7818L61.2188 80.123H58.0622V80.007C58.0645 78.3771 58.8993 76.8145 60.3834 75.662C61.8675 74.5096 63.8796 73.8613 65.9784 73.8594H67.4722C69.571 73.8613 71.5832 74.5095 73.0673 75.662C74.5513 76.8145 75.3861 78.3771 75.3885 80.007V80.123Z" fill="#2F2E41"/>
<path d="M64.7072 87.4691C64.6274 87.469 64.5478 87.4636 64.4693 87.4528L56.7114 86.3898V76.4332H65.2513L65.0399 76.6246C62.0983 79.2888 64.3144 83.6088 65.8973 85.9467C66.014 86.1179 66.066 86.3113 66.0474 86.5045C66.0287 86.6977 65.9402 86.8828 65.7921 87.0387C65.6679 87.1719 65.5049 87.2804 65.3163 87.3552C65.1277 87.4301 64.919 87.4691 64.7072 87.4691Z" fill="#2F2E41"/>
<path d="M90.5362 136.627L100.108 136.627H100.108C101.726 136.627 103.277 137.126 104.421 138.014C105.565 138.903 106.208 140.107 106.208 141.364V141.518L90.5365 141.518L90.5362 136.627Z" fill="#2F2E41"/>
<path d="M222.749 142H0.250562C0.184109 142 0.120377 141.98 0.0733877 141.943C0.0263982 141.907 0 141.857 0 141.805C0 141.754 0.0263982 141.704 0.0733877 141.668C0.120377 141.631 0.184109 141.611 0.250562 141.611H222.749C222.816 141.611 222.88 141.631 222.927 141.668C222.974 141.704 223 141.754 223 141.805C223 141.857 222.974 141.907 222.927 141.943C222.88 141.98 222.816 142 222.749 142Z" fill="#CACACA"/>
</g>
<defs>
<clipPath id="clip0_27_554">
<rect width="223" height="142" fill="white"/>
</clipPath>
</defs>
</svg>
